<svg id="Layer_5" enable-background="new 0 0 64 64" height="512" viewBox="0 0 64 64" width="512" xmlns="http://www.w3.org/2000/svg"><g><path d="m25 31h-2.587c-.779 0-1.413-.634-1.413-1.414v-4.586h-2v4.586c0 1.883 1.531 3.414 3.413 3.414h2.587v4h2v-12h-2z"/><path d="m29 30.847 4.574.762c.826.138 1.426.846 1.426 1.684 0 .941-.766 1.707-1.707 1.707h-.586c-.941 0-1.707-.766-1.707-1.707v-.293h-2v.293c0 2.044 1.663 3.707 3.707 3.707h.586c2.044 0 3.707-1.663 3.707-3.707 0-1.82-1.303-3.357-3.098-3.656l-2.902-.484v-2.153h6v-2h-8z"/><path d="m39 35h2v2h-2z"/><path d="m47 25c-2.206 0-4 1.794-4 4v4c0 2.206 1.794 4 4 4s4-1.794 4-4v-4c0-2.206-1.794-4-4-4zm2 8c0 1.103-.897 2-2 2s-2-.897-2-2v-4c0-1.103.897-2 2-2s2 .897 2 2z"/><path d="m53 21h-36c-1.103 0-2 .897-2 2v16c0 1.103.897 2 2 2h36c1.103 0 2-.897 2-2v-16c0-1.103-.897-2-2-2zm-36 18v-16h36l.002 16z"/><path d="m54 17h-38c-2.757 0-5 2.243-5 5v32c0 2.757 2.243 5 5 5h38c2.757 0 5-2.243 5-5v-32c0-2.757-2.243-5-5-5zm3 37c0 1.654-1.346 3-3 3h-38c-1.654 0-3-1.346-3-3v-32c0-1.654 1.346-3 3-3h38c1.654 0 3 1.346 3 3z"/><path d="m60.707 15.293c-1.478-1.479-3.443-2.293-5.535-2.293h-22.172v-1c0-1.302-.839-2.402-2-2.816v-8.184h-14v8.184c-1.161.414-2 1.514-2 2.816v1h-.172c-2.092 0-4.058.814-5.535 2.293-1.479 1.479-2.293 3.445-2.293 5.536v12.171h-3c-1.654 0-3 1.346-3 3v6c0 1.654 1.346 3 3 3h3v10.172c0 4.316 3.512 7.828 7.828 7.828h40.344c4.316 0 7.828-3.512 7.828-7.828v-34.343c0-2.091-.814-4.057-2.293-5.536zm-31.707-12.293v6h-10v-6zm-12 9c0-.551.448-1 1-1h12c.552 0 1 .449 1 1v1h-14zm-13 31c-.552 0-1-.448-1-1v-6c0-.552.448-1 1-1h3v8zm57 12.172c0 3.214-2.614 5.828-5.828 5.828h-40.344c-3.214 0-5.828-2.614-5.828-5.828v-34.343c0-1.557.606-3.021 1.707-4.122s2.564-1.707 4.121-1.707h40.344c1.557 0 3.021.606 4.121 1.707 1.101 1.101 1.707 2.565 1.707 4.122z"/><path d="m49 45c-2.206 0-4 1.794-4 4s1.794 4 4 4 4-1.794 4-4-1.794-4-4-4zm0 6c-1.103 0-2-.897-2-2s.897-2 2-2 2 .897 2 2-.897 2-2 2z"/><path d="m21 45c-2.206 0-4 1.794-4 4s1.794 4 4 4 4-1.794 4-4-1.794-4-4-4zm0 6c-1.103 0-2-.897-2-2s.897-2 2-2 2 .897 2 2-.897 2-2 2z"/><path d="m27 43h16v2h-16z"/><path d="m29 47h12v2h-12z"/><path d="m31 51h8v2h-8z"/><path d="m21 5h2v2h-2z"/><path d="m25 5h2v2h-2z"/></g></svg>