<svg id="Layer_1" enable-background="new 0 0 480 480" height="512" viewBox="0 0 480 480" width="512" xmlns="http://www.w3.org/2000/svg"><path d="m133.111 208c-4.594 0-8.284-3.873-7.983-8.532.275-4.252 3.996-7.468 8.257-7.468h205.237c3.031 0 5.489-2.457 5.489-5.489 0-3.724-2.952-5.92-6.004-5.705-19.473 1.369-35.438-15.857-32.82-35.03.425-3.109-1.841-5.929-4.967-6.198-13.18-1.135-22.82-13.394-21.262-26.21.424-3.488-2.612-6.39-6.104-5.999-21.955 2.458-34.954-24.241-19.243-39.968 22.061-22.061 51.456-34.212 82.667-34.124 3.796.011 6.532-3.751 5.201-7.306-5.624-15.028-20.104-25.971-37.468-25.971h-194c-22.091 0-40 17.909-40 40v400c0 22.091 17.909 40 40 40h194c22.091 0 40-17.909 40-40v-226.511c0-3.031-2.457-5.489-5.489-5.489zm-8-115c0-4.418 3.582-8 8-8s8 3.582 8 8v38c0 4.418-3.582 8-8 8s-8-3.582-8-8zm16 278c0 4.418-3.582 8-8 8s-8-3.582-8-8v-104c0-4.418 3.582-8 8-8s8 3.582 8 8zm206.01-210.19c-6.074 6.074-15.924 6.096-22.02 0-9.832-9.832-2.724-26.59 11.01-26.59 13.729 0 20.838 16.762 11.01 26.59zm16.987-39.011c-15.438-15.438-40.557-15.438-55.994 0-3.125 3.124-8.189 3.124-11.314 0-3.124-3.124-3.124-8.189 0-11.313 21.678-21.677 56.945-21.677 78.623 0 3.124 3.124 3.124 8.189 0 11.313-3.126 3.125-8.19 3.124-11.315 0zm32.124-32.125c-33.228-33.229-87.011-33.232-120.242 0-3.125 3.124-8.189 3.124-11.314 0-3.124-3.124-3.124-8.189 0-11.313 39.483-39.483 103.385-39.486 142.871 0 3.124 3.124 3.124 8.189 0 11.313-3.125 3.124-8.19 3.125-11.315 0z"/></svg>